  0
SECTION
  2
BLOCKS
  0
ENDSEC
  0
SECTION
  2
ENTITIES
  0
LINE
  8
0
 10
60.25
 20
14.5404
 11
60.25
 21
24.1874
  0
LINE
  8
0
 10
60.25
 20
24.1874
 11
67.375
 21
21.5942
  0
LINE
  8
0
 10
67.375
 20
21.5942
 11
67.75
 21
21.8107
  0
LINE
  8
0
 10
67.75
 20
21.8107
 11
67.75
 21
31.8107
  0
LINE
  8
0
 10
67.75
 20
31.8107
 11
67.375
 21
32.0271
  0
LINE
  8
0
 10
67.375
 20
32.0271
 11
60.5
 21
29.5249
  0
LINE
  8
0
 10
60.5
 20
29.5249
 11
60.5
 21
38.3749
  0
LINE
  8
0
 10
60.5
 20
38.3749
 11
67.25
 21
35.9181
  0
LINE
  8
0
 10
67.25
 20
35.9181
 11
68
 21
36.3511
  0
LINE
  8
0
 10
68
 20
36.3511
 11
68
 21
46.3511
  0
LINE
  8
0
 10
68
 20
46.3511
 11
67.25
 21
46.7841
  0
LINE
  8
0
 10
67.25
 20
46.7841
 11
60.75
 21
44.4183
  0
LINE
  8
0
 10
60.75
 20
44.4183
 11
60.75
 21
52.5623
  0
LINE
  8
0
 10
60.75
 20
52.5623
 11
67.125
 21
50.2421
  0
LINE
  8
0
 10
67.125
 20
50.2421
 11
68.25
 21
50.8916
  0
LINE
  8
0
 10
68.25
 20
50.8916
 11
68.25
 21
60.8916
  0
LINE
  8
0
 10
68.25
 20
60.8916
 11
67.125
 21
61.5411
  0
LINE
  8
0
 10
67.125
 20
61.5411
 11
61
 21
59.3118
  0
LINE
  8
0
 10
61
 20
59.3118
 11
61
 21
66.7498
  0
LINE
  8
0
 10
61
 20
66.7498
 11
67
 21
64.566
  0
LINE
  8
0
 10
67
 20
64.566
 11
68.5
 21
65.432
  0
LINE
  8
0
 10
68.5
 20
65.432
 11
68.5
 21
75.432
  0
LINE
  8
0
 10
68.5
 20
75.432
 11
67
 21
76.298
  0
LINE
  8
0
 10
67
 20
76.298
 11
61.25
 21
74.2052
  0
LINE
  8
0
 10
61.25
 20
74.2052
 11
61.25
 21
80.9372
  0
LINE
  8
0
 10
61.25
 20
80.9372
 11
66.875
 21
78.8899
  0
LINE
  8
0
 10
66.875
 20
78.8899
 11
68.75
 21
79.9724
  0
LINE
  8
0
 10
68.75
 20
79.9724
 11
68.75
 21
89.9724
  0
LINE
  8
0
 10
68.75
 20
89.9724
 11
66.875
 21
91.055
  0
LINE
  8
0
 10
66.875
 20
91.055
 11
59.375
 21
88.3252
  0
LINE
  8
0
 10
59.375
 20
88.3252
 11
51.875
 21
91.055
  0
LINE
  8
0
 10
51.875
 20
91.055
 11
44.375
 21
88.3252
  0
LINE
  8
0
 10
44.375
 20
88.3252
 11
36.875
 21
91.055
  0
LINE
  8
0
 10
36.875
 20
91.055
 11
29.375
 21
88.3252
  0
LINE
  8
0
 10
29.375
 20
88.3252
 11
21.875
 21
91.055
  0
LINE
  8
0
 10
21.875
 20
91.055
 11
14.375
 21
88.3252
  0
LINE
  8
0
 10
14.375
 20
88.3252
 11
6.87502
 21
91.055
  0
LINE
  8
0
 10
6.87502
 20
91.055
 11
6.875
 21
81.055
  0
LINE
  8
0
 10
6.875
 20
81.055
 11
-0.624985
 21
83.7847
  0
LINE
  8
0
 10
-0.624985
 20
83.7847
 11
-0.625
 21
71.6197
  0
LINE
  8
0
 10
-0.625
 20
71.6197
 11
6.87498
 21
74.3495
  0
LINE
  8
0
 10
6.87498
 20
74.3495
 11
7.00002
 21
74.304
  0
LINE
  8
0
 10
7.00002
 20
74.304
 11
7
 21
66.298
  0
LINE
  8
0
 10
7
 20
66.298
 11
-0.499985
 21
69.0278
  0
LINE
  8
0
 10
-0.499985
 20
69.0278
 11
-0.5
 21
57.2958
  0
LINE
  8
0
 10
-0.5
 20
57.2958
 11
7
 21
60.0255
  0
LINE
  8
0
 10
7
 20
60.0255
 11
7.12502
 21
59.98
  0
LINE
  8
0
 10
7.12502
 20
59.98
 11
7.125
 21
51.5411
  0
LINE
  8
0
 10
7.125
 20
51.5411
 11
-0.374985
 21
54.2708
  0
LINE
  8
0
 10
-0.374985
 20
54.2708
 11
-0.375
 21
42.9718
  0
LINE
  8
0
 10
-0.375
 20
42.9718
 11
7.125
 21
45.7016
  0
LINE
  8
0
 10
7.125
 20
45.7016
 11
7.25002
 21
45.6561
  0
LINE
  8
0
 10
7.25002
 20
45.6561
 11
7.25
 21
36.7841
  0
LINE
  8
0
 10
7.25
 20
36.7841
 11
-0.249985
 21
39.5139
  0
LINE
  8
0
 10
-0.249985
 20
39.5139
 11
-0.25
 21
28.6479
  0
LINE
  8
0
 10
-0.25
 20
28.6479
 11
7.25
 21
31.3776
  0
LINE
  8
0
 10
7.25
 20
31.3776
 11
7.37502
 21
31.3321
  0
LINE
  8
0
 10
7.37502
 20
31.3321
 11
7.375
 21
22.0272
  0
LINE
  8
0
 10
7.375
 20
22.0272
 11
-0.124985
 21
24.7569
  0
LINE
  8
0
 10
-0.124985
 20
24.7569
 11
-0.125
 21
14.3239
  0
LINE
  8
0
 10
-0.125
 20
14.3239
 11
7.375
 21
17.0537
  0
LINE
  8
0
 10
7.375
 20
17.0537
 11
14.875
 21
14.3239
  0
LINE
  8
0
 10
14.875
 20
14.3239
 11
22.375
 21
17.0537
  0
LINE
  8
0
 10
22.375
 20
17.0537
 11
29.875
 21
14.3239
  0
LINE
  8
0
 10
29.875
 20
14.3239
 11
37.375
 21
17.0537
  0
LINE
  8
0
 10
37.375
 20
17.0537
 11
44.875
 21
14.3239
  0
LINE
  8
0
 10
44.875
 20
14.3239
 11
52.375
 21
17.0537
  0
LINE
  8
0
 10
52.375
 20
17.0537
 11
59.875
 21
14.3239
  0
LINE
  8
0
 10
59.875
 20
14.3239
 11
60.25
 21
14.5404
  0
LINE
  8
0
 10
44.375
 20
83.7847
 11
38.75
 21
81.7374
  0
LINE
  8
0
 10
38.75
 20
81.7374
 11
38.75
 21
88.2075
  0
LINE
  8
0
 10
38.75
 20
88.2075
 11
44.375
 21
86.1601
  0
LINE
  8
0
 10
44.375
 20
86.1601
 11
51.875
 21
88.8899
  0
LINE
  8
0
 10
51.875
 20
88.8899
 11
51.875
 21
81.055
  0
LINE
  8
0
 10
51.875
 20
81.055
 11
44.375
 21
83.7847
  0
LINE
  8
0
 10
59.375
 20
83.7847
 11
53.75
 21
81.7374
  0
LINE
  8
0
 10
53.75
 20
81.7374
 11
53.75
 21
88.2075
  0
LINE
  8
0
 10
53.75
 20
88.2075
 11
59.375
 21
86.1601
  0
LINE
  8
0
 10
59.375
 20
86.1601
 11
66.875
 21
88.8899
  0
LINE
  8
0
 10
66.875
 20
88.8899
 11
66.875
 21
81.055
  0
LINE
  8
0
 10
66.875
 20
81.055
 11
59.375
 21
83.7847
  0
LINE
  8
0
 10
29.375
 20
83.7847
 11
23.75
 21
81.7374
  0
LINE
  8
0
 10
23.75
 20
81.7374
 11
23.75
 21
88.2075
  0
LINE
  8
0
 10
23.75
 20
88.2075
 11
29.375
 21
86.1601
  0
LINE
  8
0
 10
29.375
 20
86.1601
 11
36.875
 21
88.8899
  0
LINE
  8
0
 10
36.875
 20
88.8899
 11
36.875
 21
81.055
  0
LINE
  8
0
 10
36.875
 20
81.055
 11
29.375
 21
83.7847
  0
LINE
  8
0
 10
14.375
 20
83.7847
 11
8.75
 21
81.7374
  0
LINE
  8
0
 10
8.75
 20
81.7374
 11
8.75
 21
88.2075
  0
LINE
  8
0
 10
8.75
 20
88.2075
 11
14.375
 21
86.1601
  0
LINE
  8
0
 10
14.375
 20
86.1601
 11
21.875
 21
88.8899
  0
LINE
  8
0
 10
21.875
 20
88.8899
 11
21.875
 21
81.055
  0
LINE
  8
0
 10
21.875
 20
81.055
 11
14.375
 21
83.7847
  0
LINE
  8
0
 10
6.875
 20
76.5145
 11
1.25
 21
74.4672
  0
LINE
  8
0
 10
1.25
 20
74.4672
 11
1.25
 21
80.9372
  0
LINE
  8
0
 10
1.25
 20
80.9372
 11
6.87498
 21
78.8899
  0
LINE
  8
0
 10
6.87498
 20
78.8899
 11
14.375
 21
81.6197
  0
LINE
  8
0
 10
14.375
 20
81.6197
 11
14.375
 21
73.7847
  0
LINE
  8
0
 10
14.375
 20
73.7847
 11
6.875
 21
76.5145
  0
LINE
  8
0
 10
21.875
 20
76.5145
 11
16.25
 21
74.4672
  0
LINE
  8
0
 10
16.25
 20
74.4672
 11
16.25
 21
80.9372
  0
LINE
  8
0
 10
16.25
 20
80.9372
 11
21.875
 21
78.8899
  0
LINE
  8
0
 10
21.875
 20
78.8899
 11
29.375
 21
81.6197
  0
LINE
  8
0
 10
29.375
 20
81.6197
 11
29.375
 21
73.7847
  0
LINE
  8
0
 10
29.375
 20
73.7847
 11
21.875
 21
76.5145
  0
LINE
  8
0
 10
36.875
 20
76.5145
 11
31.25
 21
74.4672
  0
LINE
  8
0
 10
31.25
 20
74.4672
 11
31.25
 21
80.9372
  0
LINE
  8
0
 10
31.25
 20
80.9372
 11
36.875
 21
78.8899
  0
LINE
  8
0
 10
36.875
 20
78.8899
 11
44.375
 21
81.6197
  0
LINE
  8
0
 10
44.375
 20
81.6197
 11
44.375
 21
73.7847
  0
LINE
  8
0
 10
44.375
 20
73.7847
 11
36.875
 21
76.5145
  0
LINE
  8
0
 10
51.875
 20
76.5145
 11
46.25
 21
74.4672
  0
LINE
  8
0
 10
46.25
 20
74.4672
 11
46.25
 21
80.9372
  0
LINE
  8
0
 10
46.25
 20
80.9372
 11
51.875
 21
78.8899
  0
LINE
  8
0
 10
51.875
 20
78.8899
 11
59.375
 21
81.6197
  0
LINE
  8
0
 10
59.375
 20
81.6197
 11
59.375
 21
73.7847
  0
LINE
  8
0
 10
59.375
 20
73.7847
 11
51.875
 21
76.5145
  0
LINE
  8
0
 10
59.5
 20
69.0278
 11
53.5
 21
66.844
  0
LINE
  8
0
 10
53.5
 20
66.844
 11
53.5
 21
73.758
  0
LINE
  8
0
 10
53.5
 20
73.758
 11
59.375
 21
71.6197
  0
LINE
  8
0
 10
59.375
 20
71.6197
 11
60.1763
 21
72.0823
  0
LINE
  8
0
 10
60.1763
 20
72.0823
 11
67
 21
74.566
  0
LINE
  8
0
 10
67
 20
74.566
 11
67
 21
66.298
  0
LINE
  8
0
 10
67
 20
66.298
 11
59.5
 21
69.0278
  0
LINE
  8
0
 10
44.5
 20
69.0278
 11
38.5
 21
66.844
  0
LINE
  8
0
 10
38.5
 20
66.844
 11
38.5
 21
73.758
  0
LINE
  8
0
 10
38.5
 20
73.758
 11
44.375
 21
71.6197
  0
LINE
  8
0
 10
44.375
 20
71.6197
 11
51.875
 21
74.3495
  0
LINE
  8
0
 10
51.875
 20
74.3495
 11
52
 21
74.304
  0
LINE
  8
0
 10
52
 20
74.304
 11
52
 21
66.298
  0
LINE
  8
0
 10
52
 20
66.298
 11
44.5
 21
69.0278
  0
LINE
  8
0
 10
29.5
 20
69.0278
 11
23.5
 21
66.844
  0
LINE
  8
0
 10
23.5
 20
66.844
 11
23.5
 21
73.758
  0
LINE
  8
0
 10
23.5
 20
73.758
 11
29.375
 21
71.6197
  0
LINE
  8
0
 10
29.375
 20
71.6197
 11
36.875
 21
74.3495
  0
LINE
  8
0
 10
36.875
 20
74.3495
 11
37
 21
74.304
  0
LINE
  8
0
 10
37
 20
74.304
 11
37
 21
66.298
  0
LINE
  8
0
 10
37
 20
66.298
 11
29.5
 21
69.0278
  0
LINE
  8
0
 10
14.5
 20
69.0278
 11
8.5
 21
66.844
  0
LINE
  8
0
 10
8.5
 20
66.844
 11
8.5
 21
73.758
  0
LINE
  8
0
 10
8.5
 20
73.758
 11
14.375
 21
71.6197
  0
LINE
  8
0
 10
14.375
 20
71.6197
 11
21.875
 21
74.3495
  0
LINE
  8
0
 10
21.875
 20
74.3495
 11
22
 21
74.304
  0
LINE
  8
0
 10
22
 20
74.304
 11
22
 21
66.298
  0
LINE
  8
0
 10
22
 20
66.298
 11
14.5
 21
69.0278
  0
LINE
  8
0
 10
37
 20
61.7576
 11
31
 21
59.5737
  0
LINE
  8
0
 10
31
 20
59.5737
 11
31
 21
66.7498
  0
LINE
  8
0
 10
31
 20
66.7498
 11
37
 21
64.566
  0
LINE
  8
0
 10
37
 20
64.566
 11
44.5
 21
67.2957
  0
LINE
  8
0
 10
44.5
 20
67.2957
 11
44.5
 21
59.0278
  0
LINE
  8
0
 10
44.5
 20
59.0278
 11
37
 21
61.7576
  0
LINE
  8
0
 10
52
 20
61.7576
 11
46
 21
59.5737
  0
LINE
  8
0
 10
46
 20
59.5737
 11
46
 21
66.7498
  0
LINE
  8
0
 10
46
 20
66.7498
 11
52
 21
64.566
  0
LINE
  8
0
 10
52
 20
64.566
 11
59.5
 21
67.2957
  0
LINE
  8
0
 10
59.5
 20
67.2957
 11
59.5
 21
59.0278
  0
LINE
  8
0
 10
59.5
 20
59.0278
 11
52
 21
61.7576
  0
LINE
  8
0
 10
22
 20
61.7576
 11
16
 21
59.5737
  0
LINE
  8
0
 10
16
 20
59.5737
 11
16
 21
66.7498
  0
LINE
  8
0
 10
16
 20
66.7498
 11
22
 21
64.566
  0
LINE
  8
0
 10
22
 20
64.566
 11
29.5
 21
67.2957
  0
LINE
  8
0
 10
29.5
 20
67.2957
 11
29.5
 21
59.0278
  0
LINE
  8
0
 10
29.5
 20
59.0278
 11
22
 21
61.7576
  0
LINE
  8
0
 10
7
 20
61.7576
 11
1
 21
59.5737
  0
LINE
  8
0
 10
1
 20
59.5737
 11
1
 21
66.7498
  0
LINE
  8
0
 10
1
 20
66.7498
 11
7
 21
64.566
  0
LINE
  8
0
 10
7
 20
64.566
 11
14.5
 21
67.2957
  0
LINE
  8
0
 10
14.5
 20
67.2957
 11
14.5
 21
59.0278
  0
LINE
  8
0
 10
14.5
 20
59.0278
 11
7
 21
61.7576
  0
LINE
  8
0
 10
59.625
 20
54.2708
 11
53.25
 21
51.9505
  0
LINE
  8
0
 10
53.25
 20
51.9505
 11
53.25
 21
59.5706
  0
LINE
  8
0
 10
53.25
 20
59.5706
 11
59.5
 21
57.2958
  0
LINE
  8
0
 10
59.5
 20
57.2958
 11
60.3014
 21
57.7584
  0
LINE
  8
0
 10
60.3014
 20
57.7584
 11
67.125
 21
60.242
  0
LINE
  8
0
 10
67.125
 20
60.242
 11
67.125
 21
51.5411
  0
LINE
  8
0
 10
67.125
 20
51.5411
 11
59.625
 21
54.2708
  0
LINE
  8
0
 10
44.625
 20
54.2708
 11
38.25
 21
51.9505
  0
LINE
  8
0
 10
38.25
 20
51.9505
 11
38.25
 21
59.5706
  0
LINE
  8
0
 10
38.25
 20
59.5706
 11
44.5
 21
57.2958
  0
LINE
  8
0
 10
44.5
 20
57.2958
 11
52
 21
60.0255
  0
LINE
  8
0
 10
52
 20
60.0255
 11
52.125
 21
59.98
  0
LINE
  8
0
 10
52.125
 20
59.98
 11
52.125
 21
51.5411
  0
LINE
  8
0
 10
52.125
 20
51.5411
 11
44.625
 21
54.2708
  0
LINE
  8
0
 10
29.625
 20
54.2708
 11
23.25
 21
51.9505
  0
LINE
  8
0
 10
23.25
 20
51.9505
 11
23.25
 21
59.5706
  0
LINE
  8
0
 10
23.25
 20
59.5706
 11
29.5
 21
57.2958
  0
LINE
  8
0
 10
29.5
 20
57.2958
 11
37
 21
60.0255
  0
LINE
  8
0
 10
37
 20
60.0255
 11
37.125
 21
59.98
  0
LINE
  8
0
 10
37.125
 20
59.98
 11
37.125
 21
51.5411
  0
LINE
  8
0
 10
37.125
 20
51.5411
 11
29.625
 21
54.2708
  0
LINE
  8
0
 10
14.625
 20
54.2708
 11
8.25
 21
51.9505
  0
LINE
  8
0
 10
8.25
 20
51.9505
 11
8.25
 21
59.5706
  0
LINE
  8
0
 10
8.25
 20
59.5706
 11
14.5
 21
57.2958
  0
LINE
  8
0
 10
14.5
 20
57.2958
 11
22
 21
60.0255
  0
LINE
  8
0
 10
22
 20
60.0255
 11
22.125
 21
59.98
  0
LINE
  8
0
 10
22.125
 20
59.98
 11
22.125
 21
51.5411
  0
LINE
  8
0
 10
22.125
 20
51.5411
 11
14.625
 21
54.2708
  0
LINE
  8
0
 10
52.125
 20
47.0006
 11
45.75
 21
44.6803
  0
LINE
  8
0
 10
45.75
 20
44.6803
 11
45.75
 21
52.5623
  0
LINE
  8
0
 10
45.75
 20
52.5623
 11
52.125
 21
50.242
  0
LINE
  8
0
 10
52.125
 20
50.242
 11
59.625
 21
52.9718
  0
LINE
  8
0
 10
59.625
 20
52.9718
 11
59.625
 21
44.2708
  0
LINE
  8
0
 10
59.625
 20
44.2708
 11
52.125
 21
47.0006
  0
LINE
  8
0
 10
37.125
 20
47.0006
 11
30.75
 21
44.6803
  0
LINE
  8
0
 10
30.75
 20
44.6803
 11
30.75
 21
52.5623
  0
LINE
  8
0
 10
30.75
 20
52.5623
 11
37.125
 21
50.242
  0
LINE
  8
0
 10
37.125
 20
50.242
 11
44.625
 21
52.9718
  0
LINE
  8
0
 10
44.625
 20
52.9718
 11
44.625
 21
44.2708
  0
LINE
  8
0
 10
44.625
 20
44.2708
 11
37.125
 21
47.0006
  0
LINE
  8
0
 10
22.125
 20
47.0006
 11
15.75
 21
44.6803
  0
LINE
  8
0
 10
15.75
 20
44.6803
 11
15.75
 21
52.5623
  0
LINE
  8
0
 10
15.75
 20
52.5623
 11
22.125
 21
50.242
  0
LINE
  8
0
 10
22.125
 20
50.242
 11
29.625
 21
52.9718
  0
LINE
  8
0
 10
29.625
 20
52.9718
 11
29.625
 21
44.2708
  0
LINE
  8
0
 10
29.625
 20
44.2708
 11
22.125
 21
47.0006
  0
LINE
  8
0
 10
7.125
 20
47.0006
 11
0.75
 21
44.6803
  0
LINE
  8
0
 10
0.75
 20
44.6803
 11
0.75
 21
52.5623
  0
LINE
  8
0
 10
0.75
 20
52.5623
 11
7.125
 21
50.242
  0
LINE
  8
0
 10
7.125
 20
50.242
 11
14.625
 21
52.9718
  0
LINE
  8
0
 10
14.625
 20
52.9718
 11
14.625
 21
44.2708
  0
LINE
  8
0
 10
14.625
 20
44.2708
 11
7.125
 21
47.0006
  0
LINE
  8
0
 10
59.75
 20
39.5139
 11
53
 21
37.0571
  0
LINE
  8
0
 10
53
 20
37.0571
 11
53
 21
45.3831
  0
LINE
  8
0
 10
53
 20
45.3831
 11
59.625
 21
42.9718
  0
LINE
  8
0
 10
59.625
 20
42.9718
 11
60.4263
 21
43.4345
  0
LINE
  8
0
 10
60.4263
 20
43.4345
 11
67.25
 21
45.9181
  0
LINE
  8
0
 10
67.25
 20
45.9181
 11
67.25
 21
36.7841
  0
LINE
  8
0
 10
67.25
 20
36.7841
 11
59.75
 21
39.5139
  0
LINE
  8
0
 10
44.75
 20
39.5139
 11
38
 21
37.0571
  0
LINE
  8
0
 10
38
 20
37.0571
 11
38
 21
45.3831
  0
LINE
  8
0
 10
38
 20
45.3831
 11
44.625
 21
42.9718
  0
LINE
  8
0
 10
44.625
 20
42.9718
 11
52.125
 21
45.7016
  0
LINE
  8
0
 10
52.125
 20
45.7016
 11
52.25
 21
45.6561
  0
LINE
  8
0
 10
52.25
 20
45.6561
 11
52.25
 21
36.7841
  0
LINE
  8
0
 10
52.25
 20
36.7841
 11
44.75
 21
39.5139
  0
LINE
  8
0
 10
29.75
 20
39.5139
 11
23
 21
37.0571
  0
LINE
  8
0
 10
23
 20
37.0571
 11
23
 21
45.3831
  0
LINE
  8
0
 10
23
 20
45.3831
 11
29.625
 21
42.9718
  0
LINE
  8
0
 10
29.625
 20
42.9718
 11
37.125
 21
45.7016
  0
LINE
  8
0
 10
37.125
 20
45.7016
 11
37.25
 21
45.6561
  0
LINE
  8
0
 10
37.25
 20
45.6561
 11
37.25
 21
36.7841
  0
LINE
  8
0
 10
37.25
 20
36.7841
 11
29.75
 21
39.5139
  0
LINE
  8
0
 10
14.75
 20
39.5139
 11
8
 21
37.0571
  0
LINE
  8
0
 10
8
 20
37.0571
 11
8
 21
45.3831
  0
LINE
  8
0
 10
8
 20
45.3831
 11
14.625
 21
42.9718
  0
LINE
  8
0
 10
14.625
 20
42.9718
 11
22.125
 21
45.7016
  0
LINE
  8
0
 10
22.125
 20
45.7016
 11
22.25
 21
45.6561
  0
LINE
  8
0
 10
22.25
 20
45.6561
 11
22.25
 21
36.7841
  0
LINE
  8
0
 10
22.25
 20
36.7841
 11
14.75
 21
39.5139
  0
LINE
  8
0
 10
22.25
 20
32.2437
 11
15.5
 21
29.7869
  0
LINE
  8
0
 10
15.5
 20
29.7869
 11
15.5
 21
38.3749
  0
LINE
  8
0
 10
15.5
 20
38.3749
 11
22.25
 21
35.9181
  0
LINE
  8
0
 10
22.25
 20
35.9181
 11
29.75
 21
38.6479
  0
LINE
  8
0
 10
29.75
 20
38.6479
 11
29.75
 21
29.5139
  0
LINE
  8
0
 10
29.75
 20
29.5139
 11
22.25
 21
32.2437
  0
LINE
  8
0
 10
37.25
 20
32.2437
 11
30.5
 21
29.7869
  0
LINE
  8
0
 10
30.5
 20
29.7869
 11
30.5
 21
38.3749
  0
LINE
  8
0
 10
30.5
 20
38.3749
 11
37.25
 21
35.9181
  0
LINE
  8
0
 10
37.25
 20
35.9181
 11
44.75
 21
38.6479
  0
LINE
  8
0
 10
44.75
 20
38.6479
 11
44.75
 21
29.5139
  0
LINE
  8
0
 10
44.75
 20
29.5139
 11
37.25
 21
32.2437
  0
LINE
  8
0
 10
52.25
 20
32.2437
 11
45.5
 21
29.7869
  0
LINE
  8
0
 10
45.5
 20
29.7869
 11
45.5
 21
38.3749
  0
LINE
  8
0
 10
45.5
 20
38.3749
 11
52.25
 21
35.9181
  0
LINE
  8
0
 10
52.25
 20
35.9181
 11
59.75
 21
38.6479
  0
LINE
  8
0
 10
59.75
 20
38.6479
 11
59.75
 21
29.5139
  0
LINE
  8
0
 10
59.75
 20
29.5139
 11
52.25
 21
32.2437
  0
LINE
  8
0
 10
7.25
 20
32.2437
 11
0.5
 21
29.7869
  0
LINE
  8
0
 10
0.5
 20
29.7869
 11
0.5
 21
38.3749
  0
LINE
  8
0
 10
0.5
 20
38.3749
 11
7.25
 21
35.9181
  0
LINE
  8
0
 10
7.25
 20
35.9181
 11
14.75
 21
38.6479
  0
LINE
  8
0
 10
14.75
 20
38.6479
 11
14.75
 21
29.5139
  0
LINE
  8
0
 10
14.75
 20
29.5139
 11
7.25
 21
32.2437
  0
LINE
  8
0
 10
59.875
 20
24.7569
 11
52.75
 21
22.1637
  0
LINE
  8
0
 10
52.75
 20
22.1637
 11
52.75
 21
31.1957
  0
LINE
  8
0
 10
52.75
 20
31.1957
 11
59.75
 21
28.6479
  0
LINE
  8
0
 10
59.75
 20
28.6479
 11
60.5
 21
29.0809
  0
LINE
  8
0
 10
60.5
 20
29.0809
 11
60.5
 21
29.0918
  0
LINE
  8
0
 10
60.5
 20
29.0918
 11
67.375
 21
31.5941
  0
LINE
  8
0
 10
67.375
 20
31.5941
 11
67.375
 21
22.0271
  0
LINE
  8
0
 10
67.375
 20
22.0271
 11
59.875
 21
24.7569
  0
LINE
  8
0
 10
44.875
 20
24.7569
 11
37.75
 21
22.1637
  0
LINE
  8
0
 10
37.75
 20
22.1637
 11
37.75
 21
31.1957
  0
LINE
  8
0
 10
37.75
 20
31.1957
 11
44.75
 21
28.6479
  0
LINE
  8
0
 10
44.75
 20
28.6479
 11
52.25
 21
31.3776
  0
LINE
  8
0
 10
52.25
 20
31.3776
 11
52.375
 21
31.3321
  0
LINE
  8
0
 10
52.375
 20
31.3321
 11
52.375
 21
22.0272
  0
LINE
  8
0
 10
52.375
 20
22.0272
 11
44.875
 21
24.7569
  0
LINE
  8
0
 10
29.875
 20
24.7569
 11
22.75
 21
22.1637
  0
LINE
  8
0
 10
22.75
 20
22.1637
 11
22.75
 21
31.1957
  0
LINE
  8
0
 10
22.75
 20
31.1957
 11
29.75
 21
28.6479
  0
LINE
  8
0
 10
29.75
 20
28.6479
 11
37.25
 21
31.3776
  0
LINE
  8
0
 10
37.25
 20
31.3776
 11
37.375
 21
31.3321
  0
LINE
  8
0
 10
37.375
 20
31.3321
 11
37.375
 21
22.0272
  0
LINE
  8
0
 10
37.375
 20
22.0272
 11
29.875
 21
24.7569
  0
LINE
  8
0
 10
14.875
 20
24.7569
 11
7.75
 21
22.1637
  0
LINE
  8
0
 10
7.75
 20
22.1637
 11
7.75
 21
31.1957
  0
LINE
  8
0
 10
7.75
 20
31.1957
 11
14.75
 21
28.6479
  0
LINE
  8
0
 10
14.75
 20
28.6479
 11
22.25
 21
31.3776
  0
LINE
  8
0
 10
22.25
 20
31.3776
 11
22.375
 21
31.3321
  0
LINE
  8
0
 10
22.375
 20
31.3321
 11
22.375
 21
22.0272
  0
LINE
  8
0
 10
22.375
 20
22.0272
 11
14.875
 21
24.7569
  0
LINE
  8
0
 10
7.375
 20
17.4867
 11
0.25
 21
14.8934
  0
LINE
  8
0
 10
0.25
 20
14.8934
 11
0.25
 21
24.1874
  0
LINE
  8
0
 10
0.25
 20
24.1874
 11
7.375
 21
21.5941
  0
LINE
  8
0
 10
7.375
 20
21.5941
 11
14.875
 21
24.3239
  0
LINE
  8
0
 10
14.875
 20
24.3239
 11
14.875
 21
14.7569
  0
LINE
  8
0
 10
14.875
 20
14.7569
 11
7.375
 21
17.4867
  0
LINE
  8
0
 10
37.375
 20
17.4867
 11
30.25
 21
14.8934
  0
LINE
  8
0
 10
30.25
 20
14.8934
 11
30.25
 21
24.1874
  0
LINE
  8
0
 10
30.25
 20
24.1874
 11
37.375
 21
21.5941
  0
LINE
  8
0
 10
37.375
 20
21.5941
 11
44.875
 21
24.3239
  0
LINE
  8
0
 10
44.875
 20
24.3239
 11
44.875
 21
14.7569
  0
LINE
  8
0
 10
44.875
 20
14.7569
 11
37.375
 21
17.4867
  0
LINE
  8
0
 10
22.375
 20
17.4867
 11
15.25
 21
14.8934
  0
LINE
  8
0
 10
15.25
 20
14.8934
 11
15.25
 21
24.1874
  0
LINE
  8
0
 10
15.25
 20
24.1874
 11
22.375
 21
21.5941
  0
LINE
  8
0
 10
22.375
 20
21.5941
 11
29.875
 21
24.3239
  0
LINE
  8
0
 10
29.875
 20
24.3239
 11
29.875
 21
14.7569
  0
LINE
  8
0
 10
29.875
 20
14.7569
 11
22.375
 21
17.4867
  0
LINE
  8
0
 10
52.375
 20
17.4867
 11
45.25
 21
14.8934
  0
LINE
  8
0
 10
45.25
 20
14.8934
 11
45.25
 21
24.1874
  0
LINE
  8
0
 10
45.25
 20
24.1874
 11
52.375
 21
21.5941
  0
LINE
  8
0
 10
52.375
 20
21.5941
 11
59.875
 21
24.3239
  0
LINE
  8
0
 10
59.875
 20
24.3239
 11
59.875
 21
14.7569
  0
LINE
  8
0
 10
59.875
 20
14.7569
 11
52.375
 21
17.4867
  0
ENDSEC
  0
SECTION
  2
OBJECTS
  0
DICTIONARY
  0
ENDSEC
  0
EOF
