  0
SECTION
  2
HEADER
  9
$ACADVER
  1
AC1009
  9
$INSBASE
 10
0.0
 20
0.0
 30
0.0
  9
$EXTMIN
 10
-0.0079529751783411
 20
-828.58330968554674
 30
-0.0015258207003583
  9
$EXTMAX
 10
1903.7357945307569
 20
960.14762499591404
 30
0.0000000349246037
  9
$LIMMIN
 10
0.0
 20
0.0
  9
$LIMMAX
 10
420.0
 20
297.0
  9
$ORTHOMODE
 70
     1
  9
$REGENMODE
 70
     1
  9
$FILLMODE
 70
     1
  9
$QTEXTMODE
 70
     0
  9
$MIRRTEXT
 70
     0
  9
$DRAGMODE
 70
     2
  9
$LTSCALE
 40
1.0
  9
$OSMODE
 70
    36
  9
$ATTMODE
 70
     1
  9
$TEXTSIZE
 40
2.5
  9
$TRACEWID
 40
1.0
  9
$TEXTSTYLE
  7
STANDARD
  9
$CLAYER
  8
0
  9
$CELTYPE
  6
BYLAYER
  9
$CECOLOR
 62
   256
  9
$DIMSCALE
 40
15.0
  9
$DIMASZ
 40
2.5
  9
$DIMEXO
 40
0.625
  9
$DIMDLI
 40
3.75
  9
$DIMRND
 40
0.0
  9
$DIMDLE
 40
0.0
  9
$DIMEXE
 40
1.25
  9
$DIMTP
 40
0.0
  9
$DIMTM
 40
0.0
  9
$DIMTXT
 40
2.5
  9
$DIMCEN
 40
2.5
  9
$DIMTSZ
 40
0.0
  9
$DIMTOL
 70
     0
  9
$DIMLIM
 70
     0
  9
$DIMTIH
 70
     0
  9
$DIMTOH
 70
     0
  9
$DIMSE1
 70
     0
  9
$DIMSE2
 70
     0
  9
$DIMTAD
 70
     1
  9
$DIMZIN
 70
     8
  9
$DIMBLK
  1

  9
$DIMASO
 70
     1
  9
$DIMSHO
 70
     1
  9
$DIMPOST
  1

  9
$DIMAPOST
  1

  9
$DIMALT
 70
     0
  9
$DIMALTD
 70
     3
  9
$DIMALTF
 40
0.03937007874016
  9
$DIMLFAC
 40
1.0
  9
$DIMTOFL
 70
     1
  9
$DIMTVP
 40
0.0
  9
$DIMTIX
 70
     0
  9
$DIMSOXD
 70
     0
  9
$DIMSAH
 70
     0
  9
$DIMBLK1
  1

  9
$DIMBLK2
  1

  9
$DIMSTYLE
  2
ISO-25
  9
$DIMCLRD
 70
     0
  9
$DIMCLRE
 70
     0
  9
$DIMCLRT
 70
     0
  9
$DIMTFAC
 40
1.0
  9
$DIMGAP
 40
0.625
  9
$LUNITS
 70
     2
  9
$LUPREC
 70
     4
  9
$SKETCHINC
 40
1.0
  9
$FILLETRAD
 40
300.0
  9
$AUNITS
 70
     0
  9
$AUPREC
 70
     0
  9
$MENU
  1
.
  9
$ELEVATION
 40
0.0
  9
$PELEVATION
 40
0.0
  9
$THICKNESS
 40
0.0
  9
$LIMCHECK
 70
     0
  9
$BLIPMODE
 70
     0
  9
$CHAMFERA
 40
0.0
  9
$CHAMFERB
 40
0.0
  9
$SKPOLY
 70
     0
  9
$TDCREATE
 40
2457086.3707097569
  9
$TDUPDATE
 40
2457086.5476570842
  9
$TDINDWG
 40
0.1706054282
  9
$TDUSRTIMER
 40
0.1706027546
  9
$USRTIMER
 70
     1
  9
$ANGBASE
 50
0.0
  9
$ANGDIR
 70
     0
  9
$PDMODE
 70
     0
  9
$PDSIZE
 40
0.0
  9
$PLINEWID
 40
0.0
  9
$COORDS
 70
     1
  9
$SPLFRAME
 70
     0
  9
$SPLINETYPE
 70
     6
  9
$SPLINESEGS
 70
     8
  9
$ATTDIA
 70
     0
  9
$ATTREQ
 70
     1
  9
$HANDLING
 70
     1
  9
$HANDSEED
  5
526
  9
$SURFTAB1
 70
     6
  9
$SURFTAB2
 70
     6
  9
$SURFTYPE
 70
     6
  9
$SURFU
 70
     6
  9
$SURFV
 70
     6
  9
$UCSNAME
  2

  9
$UCSORG
 10
0.0
 20
0.0
 30
0.0
  9
$UCSXDIR
 10
1.0
 20
0.0
 30
0.0
  9
$UCSYDIR
 10
0.0
 20
1.0
 30
0.0
  9
$PUCSNAME
  2

  9
$PUCSORG
 10
0.0
 20
0.0
 30
0.0
  9
$PUCSXDIR
 10
1.0
 20
0.0
 30
0.0
  9
$PUCSYDIR
 10
0.0
 20
1.0
 30
0.0
  9
$USERI1
 70
     0
  9
$USERI2
 70
     0
  9
$USERI3
 70
     0
  9
$USERI4
 70
     0
  9
$USERI5
 70
     0
  9
$USERR1
 40
0.0
  9
$USERR2
 40
0.0
  9
$USERR3
 40
0.0
  9
$USERR4
 40
0.0
  9
$USERR5
 40
0.0
  9
$WORLDVIEW
 70
     1
  9
$SHADEDGE
 70
     3
  9
$SHADEDIF
 70
    70
  9
$TILEMODE
 70
     1
  9
$MAXACTVP
 70
    64
  9
$PLIMCHECK
 70
     0
  9
$PEXTMIN
 10
0.0
 20
0.0
 30
0.0
  9
$PEXTMAX
 10
0.0
 20
0.0
 30
0.0
  9
$PLIMMIN
 10
0.0
 20
0.0
  9
$PLIMMAX
 10
12.0
 20
9.0
  9
$UNITMODE
 70
     0
  9
$VISRETAIN
 70
     1
  9
$PLINEGEN
 70
     0
  9
$PSLTSCALE
 70
     1
  0
ENDSEC
  0
SECTION
  2
TABLES
  0
TABLE
  2
VPORT
 70
     1
  0
VPORT
  2
*ACTIVE
 70
     0
 10
0.0
 20
0.0
 11
1.0
 21
1.0
 12
951.86392077778942
 22
65.78215765518371
 13
0.0
 23
0.0
 14
10.0
 24
10.0
 15
10.0
 25
10.0
 16
0.0
 26
0.0
 36
1.0
 17
0.0
 27
0.0
 37
0.0
 40
1801.123989656159
 41
2.1283236994219652
 42
50.0
 43
0.0
 44
0.0
 50
0.0
 51
0.0
 71
     0
 72
  1000
 73
     1
 74
     3
 75
     0
 76
     1
 77
     0
 78
     0
  0
ENDTAB
  0
TABLE
  2
LTYPE
 70
     2
  0
LTYPE
  2
CONTINUOUS
 70
     0
  3
Solid line
 72
    65
 73
     0
 40
0.0
  0
ENDTAB
  0
TABLE
  2
LAYER
 70
     2
  0
LAYER
  2
0
 70
     0
 62
     7
  6
CONTINUOUS
  0
LAYER
  2
DEFPOINTS
 70
     0
 62
     7
  6
CONTINUOUS
  0
ENDTAB
  0
TABLE
  2
STYLE
 70
     4
  0
STYLE
  2
STANDARD
 70
     0
 40
0.0
 41
1.0
 50
0.0
 71
     0
 42
2.5
  3
txt
  4

  0
STYLE
  2
ANNOTATIVE
 70
     0
 40
0.0
 41
1.0
 50
0.0
 71
     0
 42
2.5
  3
txt
  4

  0
ENDTAB
  0
TABLE
  2
VIEW
 70
     0
  0
ENDTAB
  0
TABLE
  2
UCS
 70
     0
  0
ENDTAB
  0
TABLE
  2
APPID
 70
     9
  0
APPID
  2
ACAD
 70
     0
  0
APPID
  2
ACADANNOTATIVE
 70
     0
  0
APPID
  2
ACAD_PSEXT
 70
     0
  0
APPID
  2
ACADANNOPO
 70
     0
  0
APPID
  2
ACAD_DSTYLE_DIMJAG
 70
     0
  0
APPID
  2
ACAD_DSTYLE_DIMTALN
 70
     0
  0
APPID
  2
ACAD_MLEADERVER
 70
     0
  0
APPID
  2
ACAD_NAV_VCDISPLAY
 70
     0
  0
APPID
  2
ACAD_EXEMPT_FROM_CAD_STANDARDS
 70
     0
  0
ENDTAB
  0
TABLE
  2
DIMSTYLE
 70
     6
  0
DIMSTYLE
  2
STANDARD
 70
     0
  3

  4

  5

  6

  7

 40
1.0
 41
0.18
 42
0.0625
 43
0.38
 44
0.18
 45
0.0
 46
0.0
 47
0.0
 48
0.0
140
0.18
141
0.09
142
0.0
143
25.399999999999999
144
1.0
145
0.0
146
1.0
147
0.09
 71
     0
 72
     0
 73
     1
 74
     1
 75
     0
 76
     0
 77
     0
 78
     0
170
     0
171
     2
172
     0
173
     0
174
     0
175
     0
176
     0
177
     0
178
     0
  0
DIMSTYLE
  2
ANNOTATIVE
 70
     0
  3

  4

  5

  6

  7

 40
0.0
 41
2.5
 42
0.625
 43
3.75
 44
1.25
 45
0.0
 46
0.0
 47
0.0
 48
0.0
140
2.5
141
2.5
142
0.0
143
0.03937007874016
144
1.0
145
0.0
146
1.0
147
0.625
 71
     0
 72
     0
 73
     0
 74
     0
 75
     0
 76
     0
 77
     1
 78
     8
170
     0
171
     3
172
     1
173
     0
174
     0
175
     0
176
     0
177
     0
178
     0
  0
DIMSTYLE
  2
ISO-25
 70
     0
  3

  4

  5

  6

  7

 40
15.0
 41
2.5
 42
0.625
 43
3.75
 44
1.25
 45
0.0
 46
0.0
 47
0.0
 48
0.0
140
2.5
141
2.5
142
0.0
143
0.03937007874016
144
1.0
145
0.0
146
1.0
147
0.625
 71
     0
 72
     0
 73
     0
 74
     0
 75
     0
 76
     0
 77
     1
 78
     8
170
     0
171
     3
172
     1
173
     0
174
     0
175
     0
176
     0
177
     0
178
     0
  0
ENDTAB
  0
ENDSEC
  0
SECTION
  2
BLOCKS
  0
BLOCK
  8
0
  2
$MODEL_SPACE
 70
     0
 10
0.0
 20
0.0
 30
0.0
  3
$MODEL_SPACE
  1

  0
ENDBLK
  5
314
  8
0
  0
BLOCK
 67
     1
  8
0
  2
$PAPER_SPACE
 70
     0
 10
0.0
 20
0.0
 30
0.0
  3
$PAPER_SPACE
  1

  0
ENDBLK
  5
310
 67
     1
  8
0
  0
BLOCK
  8
0
  2
*D2
 70
     1
 10
0.0
 20
0.0
 30
0.0
  3
*D2
  1

  0
LINE
  5
32B
  8
0
 62
     0
 10
605.77561750928817
 20
673.95984888605744
 30
0.0
 11
605.77561750928817
 21
863.35590954160705
 31
0.0
  0
INSERT
  5
32C
  8
0
  2
*U32
 10
0.0
 20
0.0
 30
0.0
  0
POINT
  5
32D
  8
DEFPOINTS
 62
     0
 10
605.77561750928817
 20
673.33484888605744
 30
0.0
  0
POINT
  5
32E
  8
DEFPOINTS
 62
     0
 10
605.77561750928817
 20
845.64757620827368
 30
0.0
  0
POINT
  5
32F
  8
DEFPOINTS
 62
     0
 10
0.0
 20
0.0
 30
0.0
  0
ENDBLK
  5
32A
  8
0
  0
BLOCK
  8
0
  2
*D3
 70
     1
 10
0.0
 20
0.0
 30
0.0
  3
*D3
  1

  0
LINE
  5
334
  8
0
 62
     0
 10
606.40061750928828
 20
673.33484888605744
 30
0.0
 11
723.79968041677046
 21
673.33484888605744
 31
0.0
  0
INSERT
  5
335
  8
0
  2
*U33
 10
0.0
 20
0.0
 30
0.0
  0
POINT
  5
336
  8
DEFPOINTS
 62
     0
 10
605.77561750928817
 20
673.33484888605744
 30
0.0
  0
POINT
  5
337
  8
DEFPOINTS
 62
     0
 10
705.67468041677057
 20
673.33484888605744
 30
0.0
  0
POINT
  5
338
  8
DEFPOINTS
 62
     0
 10
0.0
 20
0.0
 30
0.0
  0
ENDBLK
  5
333
  8
0
  0
BLOCK
  8
0
  2
*D4
 70
     1
 10
0.0
 20
0.0
 30
0.0
  3
*D4
  1

  0
LINE
  5
33D
  8
0
 62
     0
 10
1334.1222682529601
 20
910.59868958513107
 30
0.0
 11
1334.1222682529601
 21
1089.2289569299489
 31
0.0
  0
INSERT
  5
33E
  8
0
  2
*U34
 10
0.0
 20
0.0
 30
0.0
  0
POINT
  5
33F
  8
DEFPOINTS
 62
     0
 10
1334.1222682529601
 20
909.97368958513107
 30
0.0
  0
POINT
  5
340
  8
DEFPOINTS
 62
     0
 10
1334.1222682529601
 20
1070.2706235966159
 30
0.0
  0
POINT
  5
341
  8
DEFPOINTS
 62
     0
 10
0.0
 20
0.0
 30
0.0
  0
ENDBLK
  5
33C
  8
0
  0
BLOCK
  8
0
  2
*D5
 70
     1
 10
0.0
 20
0.0
 30
0.0
  3
*D5
  1

  0
LINE
  5
346
  8
0
 62
     0
 10
1334.7472682529601
 20
909.97368958513107
 30
0.0
 11
1457.9347109897039
 21
909.97368958513107
 31
0.0
  0
INSERT
  5
347
  8
0
  2
*U35
 10
0.0
 20
0.0
 30
0.0
  0
POINT
  5
348
  8
DEFPOINTS
 62
     0
 10
1334.1222682529601
 20
909.97368958513107
 30
0.0
  0
POINT
  5
349
  8
DEFPOINTS
 62
     0
 10
1440.22637765637
 20
909.97368958513107
 30
0.0
  0
POINT
  5
34A
  8
DEFPOINTS
 62
     0
 10
0.0
 20
0.0
 30
0.0
  0
ENDBLK
  5
345
  8
0
  0
BLOCK
  8
0
  2
*D6
 70
     1
 10
0.0
 20
0.0
 30
0.0
  3
*D6
  1

  0
LINE
  5
34F
  8
0
 62
     0
 10
795.22723010918003
 20
-414.70093460910772
 30
0.0
 11
795.22723010918003
 21
-291.91694917203313
 31
0.0
  0
INSERT
  5
350
  8
0
  2
*U36
 10
0.0
 20
0.0
 30
0.0
  0
POINT
  5
351
  8
DEFPOINTS
 62
     0
 10
795.22723010918003
 20
-415.32593460910761
 30
0.0
  0
POINT
  5
352
  8
DEFPOINTS
 62
     0
 10
795.22723010918003
 20
-310.04194917203313
 30
0.0
  0
POINT
  5
353
  8
DEFPOINTS
 62
     0
 10
0.0
 20
0.0
 30
0.0
  0
ENDBLK
  5
34E
  8
0
  0
BLOCK
  8
0
  2
*D7
 70
     1
 10
0.0
 20
0.0
 30
0.0
  3
*D7
  1

  0
LINE
  5
358
  8
0
 62
     0
 10
794.60223010918003
 20
-415.32593460910761
 30
0.0
 11
680.03555051869557
 21
-415.32593460910761
 31
0.0
  0
INSERT
  5
359
  8
0
  2
*U37
 10
0.0
 20
0.0
 30
0.0
  0
POINT
  5
35A
  8
DEFPOINTS
 62
     0
 10
795.22723010918003
 20
-415.32593460910761
 30
0.0
  0
POINT
  5
35B
  8
DEFPOINTS
 62
     0
 10
697.32721718536231
 20
-415.32593460910761
 30
0.0
  0
POINT
  5
35C
  8
DEFPOINTS
 62
     0
 10
0.0
 20
0.0
 30
0.0
  0
ENDBLK
  5
357
  8
0
  0
BLOCK
  8
0
  2
*D8
 70
     1
 10
0.0
 20
0.0
 30
0.0
  3
*D8
  1

  0
LINE
  5
370
  8
0
 62
     0
 10
-9.3749999999999432
 20
0.0
 30
0.0
 11
-160.46178213699201
 21
0.0
 31
0.0
  0
INSERT
  5
371
  8
0
  2
*U38
 10
0.0
 20
0.0
 30
0.0
  0
POINT
  5
372
  8
DEFPOINTS
 62
     0
 10
0.0000000000000568
 20
0.0
 30
0.0
  0
POINT
  5
373
  8
DEFPOINTS
 62
     0
 10
-132.33678213699201
 20
0.0
 30
0.0
  0
POINT
  5
374
  8
DEFPOINTS
 62
     0
 10
0.0
 20
0.0
 30
0.0
  0
ENDBLK
  5
36F
  8
0
  0
BLOCK
  8
0
  2
*D9
 70
     1
 10
0.0
 20
0.0
 30
0.0
  3
*D9
  1

  0
LINE
  5
379
  8
0
 62
     0
 10
0.0000000000000547
 20
-9.375
 30
0.0
 11
0.0000000000000401
 21
-75.0
 31
0.0
  0
LINE
  5
37A
  8
0
 62
     0
 10
0.0000000000000401
 20
-75.0
 30
0.0
 11
0.0000000000000735
 21
-46.787737370919793
 31
0.0
  0
LINE
  5
37B
  8
0
 62
     0
 10
0.0000000000000735
 20
-46.787737370919793
 30
0.0
 11
0.0000000000000506
 21
-149.91273737091981
 31
0.0
  0
INSERT
  5
37C
  8
0
  2
*U39
 10
0.0
 20
0.0
 30
0.0
  0
POINT
  5
37D
  8
DEFPOINTS
 62
     0
 10
0.0000000000000568
 20
0.0
 30
0.0
  0
POINT
  5
37E
  8
DEFPOINTS
 62
     0
 10
0.0000000000000568
 20
-121.7877373709198
 30
0.0
  0
POINT
  5
37F
  8
DEFPOINTS
 62
     0
 10
0.0
 20
0.0
 30
0.0
  0
ENDBLK
  5
378
  8
0
  0
BLOCK
  8
0
  2
*D10
 70
     1
 10
0.0
 20
0.0
 30
0.0
  3
*D10
  1

  0
LINE
  5
384
  8
0
 62
     0
 10
358.05938783601027
 20
723.9272096015859
 30
0.0
 11
46.008880123179537
 21
723.9272096015859
 31
0.0
  0
INSERT
  5
385
  8
0
  2
*U40
 10
0.0
 20
0.0
 30
0.0
  0
POINT
  5
386
  8
DEFPOINTS
 62
     0
 10
367.43438783601027
 20
723.9272096015859
 30
0.0
  0
POINT
  5
387
  8
DEFPOINTS
 62
     0
 10
242.88388012317949
 20
723.9272096015859
 30
0.0
  0
POINT
  5
388
  8
DEFPOINTS
 62
     0
 10
0.0
 20
0.0
 30
0.0
  0
ENDBLK
  5
383
  8
0
  0
BLOCK
  8
0
  2
*D11
 70
     1
 10
0.0
 20
0.0
 30
0.0
  3
*D11
  1

  0
LINE
  5
38D
  8
0
 62
     0
 10
367.43438783601027
 20
733.3022096015859
 30
0.0
 11
367.43438783601027
 21
1053.613996381815
 31
0.0
  0
INSERT
  5
38E
  8
0
  2
*U41
 10
0.0
 20
0.0
 30
0.0
  0
POINT
  5
38F
  8
DEFPOINTS
 62
     0
 10
367.43438783601027
 20
723.9272096015859
 30
0.0
  0
POINT
  5
390
  8
DEFPOINTS
 62
     0
 10
367.43438783601027
 20
856.73899638181501
 30
0.0
  0
POINT
  5
391
  8
DEFPOINTS
 62
     0
 10
0.0
 20
0.0
 30
0.0
  0
ENDBLK
  5
38C
  8
0
  0
BLOCK
  8
0
  2
*D12
 70
     1
 10
0.0
 20
0.0
 30
0.0
  3
*D12
  1

  0
LINE
  5
396
  8
0
 62
     0
 10
545.90252502490921
 20
427.77910978716869
 30
0.0
 11
545.9025250249091
 21
122.6736916249028
 31
0.0
  0
INSERT
  5
397
  8
0
  2
*U42
 10
0.0
 20
0.0
 30
0.0
  0
POINT
  5
398
  8
DEFPOINTS
 62
     0
 10
545.90252502490921
 20
437.15410978716869
 30
0.0
  0
POINT
  5
399
  8
DEFPOINTS
 62
     0
 10
545.90252502490921
 20
282.04869162490292
 30
0.0
  0
POINT
  5
39A
  8
DEFPOINTS
 62
     0
 10
0.0
 20
0.0
 30
0.0
  0
ENDBLK
  5
395
  8
0
  0
BLOCK
  8
0
  2
*D13
 70
     1
 10
0.0
 20
0.0
 30
0.0
  3
*D13
  1

  0
LINE
  5
39F
  8
0
 62
     0
 10
555.27752502490921
 20
437.15410978716869
 30
0.0
 11
851.32485302971679
 21
437.15410978716869
 31
0.0
  0
INSERT
  5
3A0
  8
0
  2
*U43
 10
0.0
 20
0.0
 30
0.0
  0
POINT
  5
3A1
  8
DEFPOINTS
 62
     0
 10
545.90252502490921
 20
437.15410978716869
 30
0.0
  0
POINT
  5
3A2
  8
DEFPOINTS
 62
     0
 10
666.94985302971679
 20
437.15410978716869
 30
0.0
  0
POINT
  5
3A3
  8
DEFPOINTS
 62
     0
 10
0.0
 20
0.0
 30
0.0
  0
ENDBLK
  5
39E
  8
0
  0
BLOCK
  8
0
  2
*D14
 70
     1
 10
0.0
 20
0.0
 30
0.0
  3
*D14
  1

  0
LINE
  5
3A8
  8
0
 62
     0
 10
1306.107625209695
 20
960.76341854909401
 30
0.0
 11
1306.107625209695
 21
1240.4066939987399
 31
0.0
  0
INSERT
  5
3A9
  8
0
  2
*U44
 10
0.0
 20
0.0
 30
0.0
  0
POINT
  5
3AA
  8
DEFPOINTS
 62
     0
 10
1306.107625209695
 20
951.38841854909401
 30
0.0
  0
POINT
  5
3AB
  8
DEFPOINTS
 62
     0
 10
1306.107625209695
 20
1049.7816939987399
 30
0.0
  0
POINT
  5
3AC
  8
DEFPOINTS
 62
     0
 10
0.0
 20
0.0
 30
0.0
  0
ENDBLK
  5
3A7
  8
0
  0
BLOCK
  8
0
  2
*D15
 70
     1
 10
0.0
 20
0.0
 30
0.0
  3
*D15
  1

  0
LINE
  5
3B1
  8
0
 62
     0
 10
1296.732625209695
 20
951.38841854909401
 30
0.0
 11
973.24803893548051
 21
951.38841854909401
 31
0.0
  0
INSERT
  5
3B2
  8
0
  2
*U45
 10
0.0
 20
0.0
 30
0.0
  0
POINT
  5
3B3
  8
DEFPOINTS
 62
     0
 10
1306.107625209695
 20
951.38841854909401
 30
0.0
  0
POINT
  5
3B4
  8
DEFPOINTS
 62
     0
 10
1157.6230389354801
 20
951.38841854909401
 30
0.0
  0
POINT
  5
3B5
  8
DEFPOINTS
 62
     0
 10
0.0
 20
0.0
 30
0.0
  0
ENDBLK
  5
3B0
  8
0
  0
BLOCK
  8
0
  2
*D16
 70
     1
 10
0.0
 20
0.0
 30
0.0
  3
*D16
  1

  0
LINE
  5
3BA
  8
0
 62
     0
 10
1384.732742432313
 20
938.25151957973765
 30
0.0
 11
1711.956798842793
 21
938.25151957973765
 31
0.0
  0
INSERT
  5
3BB
  8
0
  2
*U46
 10
0.0
 20
0.0
 30
0.0
  0
POINT
  5
3BC
  8
DEFPOINTS
 62
     0
 10
1375.357742432313
 20
938.25151957973765
 30
0.0
  0
POINT
  5
3BD
  8
DEFPOINTS
 62
     0
 10
1515.081798842793
 20
938.25151957973765
 30
0.0
  0
POINT
  5
3BE
  8
DEFPOINTS
 62
     0
 10
0.0
 20
0.0
 30
0.0
  0
ENDBLK
  5
3B9
  8
0
  0
BLOCK
  8
0
  2
*D17
 70
     1
 10
0.0
 20
0.0
 30
0.0
  3
*D17
  1

  0
LINE
  5
3C3
  8
0
 62
     0
 10
1375.357742432313
 20
928.87651957973765
 30
0.0
 11
1375.357742432313
 21
608.23742032168411
 31
0.0
  0
INSERT
  5
3C4
  8
0
  2
*U47
 10
0.0
 20
0.0
 30
0.0
  0
POINT
  5
3C5
  8
DEFPOINTS
 62
     0
 10
1375.357742432313
 20
938.25151957973765
 30
0.0
  0
POINT
  5
3C6
  8
DEFPOINTS
 62
     0
 10
1375.357742432313
 20
830.112420321684
 30
0.0
  0
POINT
  5
3C7
  8
DEFPOINTS
 62
     0
 10
0.0
 20
0.0
 30
0.0
  0
ENDBLK
  5
3C2
  8
0
  0
BLOCK
  8
0
  2
*D18
 70
     1
 10
0.0
 20
0.0
 30
0.0
  3
*D18
  1

  0
LINE
  5
3CC
  8
0
 62
     0
 10
1913.035083703968
 20
167.86717408526329
 30
0.0
 11
2257.0724606380172
 21
167.86717408526329
 31
0.0
  0
INSERT
  5
3CD
  8
0
  2
*U48
 10
0.0
 20
0.0
 30
0.0
  0
POINT
  5
3CE
  8
DEFPOINTS
 62
     0
 10
1903.660083703968
 20
167.86717408526329
 30
0.0
  0
POINT
  5
3CF
  8
DEFPOINTS
 62
     0
 10
2072.6974606380172
 20
167.86717408526329
 30
0.0
  0
POINT
  5
3D0
  8
DEFPOINTS
 62
     0
 10
0.0
 20
0.0
 30
0.0
  0
ENDBLK
  5
3CB
  8
0
  0
BLOCK
  8
0
  2
*D19
 70
     1
 10
0.0
 20
0.0
 30
0.0
  3
*D19
  1

  0
LINE
  5
3D5
  8
0
 62
     0
 10
1903.660083703968
 20
158.49217408526329
 30
0.0
 11
1903.660083703968
 21
-155.79023109899211
 31
0.0
  0
INSERT
  5
3D6
  8
0
  2
*U49
 10
0.0
 20
0.0
 30
0.0
  0
POINT
  5
3D7
  8
DEFPOINTS
 62
     0
 10
1903.660083703968
 20
167.86717408526329
 30
0.0
  0
POINT
  5
3D8
  8
DEFPOINTS
 62
     0
 10
1903.660083703968
 20
59.834768901007919
 30
0.0
  0
POINT
  5
3D9
  8
DEFPOINTS
 62
     0
 10
0.0
 20
0.0
 30
0.0
  0
ENDBLK
  5
3D4
  8
0
  0
BLOCK
  8
0
  2
*D20
 70
     1
 10
0.0
 20
0.0
 30
0.0
  3
*D20
  1

  0
LINE
  5
3DE
  8
0
 62
     0
 10
915.42055594779288
 20
-584.55575756998405
 30
0.0
 11
915.42055594779288
 21
-974.72839937257959
 31
0.0
  0
INSERT
  5
3DF
  8
0
  2
*U50
 10
0.0
 20
0.0
 30
0.0
  0
POINT
  5
3E0
  8
DEFPOINTS
 62
     0
 10
915.42055594779288
 20
-575.18075756998405
 30
0.0
  0
POINT
  5
3E1
  8
DEFPOINTS
 62
     0
 10
915.42055594779288
 20
-790.35339937257959
 30
0.0
  0
POINT
  5
3E2
  8
DEFPOINTS
 62
     0
 10
0.0
 20
0.0
 30
0.0
  0
ENDBLK
  5
3DD
  8
0
  0
BLOCK
  8
0
  2
*D21
 70
     1
 10
0.0
 20
0.0
 30
0.0
  3
*D21
  1

  0
LINE
  5
3E7
  8
0
 62
     0
 10
924.79555594779288
 20
-575.18075756998405
 30
0.0
 11
1297.589593451341
 21
-575.18075756998405
 31
0.0
  0
INSERT
  5
3E8
  8
0
  2
*U51
 10
0.0
 20
0.0
 30
0.0
  0
POINT
  5
3E9
  8
DEFPOINTS
 62
     0
 10
915.42055594779288
 20
-575.18075756998405
 30
0.0
  0
POINT
  5
3EA
  8
DEFPOINTS
 62
     0
 10
1113.214593451341
 20
-575.18075756998405
 30
0.0
  0
POINT
  5
3EB
  8
DEFPOINTS
 62
     0
 10
0.0
 20
0.0
 30
0.0
  0
ENDBLK
  5
3E6
  8
0
  0
BLOCK
  8
0
  2
*D22
 70
     1
 10
0.0
 20
0.0
 30
0.0
  3
*D22
  1

  0
LINE
  5
3F0
  8
0
 62
     0
 10
665.4493821945573
 20
-576.87751030539891
 30
0.0
 11
665.44938219455707
 21
-889.59761201304252
 31
0.0
  0
INSERT
  5
3F1
  8
0
  2
*U52
 10
0.0
 20
0.0
 30
0.0
  0
POINT
  5
3F2
  8
DEFPOINTS
 62
     0
 10
665.4493821945573
 20
-567.50251030539891
 30
0.0
  0
POINT
  5
3F3
  8
DEFPOINTS
 62
     0
 10
665.4493821945573
 20
-692.72261201304264
 30
0.0
  0
POINT
  5
3F4
  8
DEFPOINTS
 62
     0
 10
0.0
 20
0.0
 30
0.0
  0
ENDBLK
  5
3EF
  8
0
  0
BLOCK
  8
0
  2
*D23
 70
     1
 10
0.0
 20
0.0
 30
0.0
  3
*D23
  1

  0
LINE
  5
3F9
  8
0
 62
     0
 10
656.0743821945573
 20
-567.50251030539891
 30
0.0
 11
341.0531705176636
 21
-567.50251030539891
 31
0.0
  0
INSERT
  5
3FA
  8
0
  2
*U53
 10
0.0
 20
0.0
 30
0.0
  0
POINT
  5
3FB
  8
DEFPOINTS
 62
     0
 10
665.4493821945573
 20
-567.50251030539891
 30
0.0
  0
POINT
  5
3FC
  8
DEFPOINTS
 62
     0
 10
500.42817051766349
 20
-567.50251030539891
 30
0.0
  0
POINT
  5
3FD
  8
DEFPOINTS
 62
     0
 10
0.0
 20
0.0
 30
0.0
  0
ENDBLK
  5
3F8
  8
0
  0
BLOCK
  8
0
  2
*D26
 70
     1
 10
0.0
 20
0.0
 30
0.0
  3
*D26
  1

  0
LINE
  5
428
  8
0
 62
     0
 10
548.69356795648798
 20
-718.69138316676595
 30
0.0
 11
389.37617680333489
 21
-842.95982387349409
 31
0.0
  0
LINE
  5
429
  8
0
 62
     0
 10
1012.547212667945
 20
-746.01993385915944
 30
0.0
 11
1156.170178617085
 21
-888.1365061915252
 31
0.0
  0
ARC
  5
42A
  8
0
 62
     0
 10
792.63581869912264
 20
-528.41508688260603
 30
0.0
 40
492.6761729229213
 50
222.3165428859262
 51
310.93993926397712
  0
SOLID
  5
42B
  8
0
 62
     0
 10
423.55468763784239
 20
-864.12624732902964
 30
0.0
 11
433.11121678371057
 21
-856.06878180417834
 31
0.0
 12
404.16055563622177
 22
-831.42792712899927
 32
0.0
 13
404.16055563622177
 23
-831.42792712899927
 33
0.0
  0
SOLID
  5
42C
  8
0
 62
     0
 10
1111.1983886681789
 20
-896.01918396655378
 30
0.0
 11
1119.742655078581
 21
-905.14308179084321
 31
0.0
 12
1142.8422153462479
 22
-874.94833364749149
 32
0.0
 13
1142.8422153462479
 23
-874.94833364749149
 33
0.0
  0
INSERT
  5
42D
  8
0
  2
*U54
 10
0.0
 20
0.0
 30
0.0
  0
POINT
  5
42E
  8
DEFPOINTS
 62
     0
 10
627.39627934906662
 20
-992.55483523579073
 30
0.0
  0
POINT
  5
42F
  8
DEFPOINTS
 62
     0
 10
792.63581869912264
 20
-528.41508688260603
 30
0.0
  0
POINT
  5
430
  8
DEFPOINTS
 62
     0
 10
792.63581869912264
 20
-528.41508688260603
 30
0.0
  0
POINT
  5
431
  8
DEFPOINTS
 62
     0
 10
1005.8832310325261
 20
-739.4258475871427
 30
0.0
  0
POINT
  5
432
  8
DEFPOINTS
 62
     0
 10
556.08575737293154
 20
-712.92543479451865
 30
0.0
  0
ENDBLK
  5
427
  8
0
  0
BLOCK
  8
0
  2
*D27
 70
     1
 10
0.0
 20
0.0
 30
0.0
  3
*D27
  1

  0
LINE
  5
442
  8
0
 62
     0
 10
546.71075737293143
 20
-712.92543479451865
 30
0.0
 11
209.69823944285781
 21
-712.92543479451865
 31
0.0
  0
INSERT
  5
443
  8
0
  2
*U55
 10
0.0
 20
0.0
 30
0.0
  0
POINT
  5
444
  8
DEFPOINTS
 62
     0
 10
556.08575737293143
 20
-712.92543479451865
 30
0.0
  0
POINT
  5
445
  8
DEFPOINTS
 62
     0
 10
394.07323944285781
 20
-712.92543479451865
 30
0.0
  0
POINT
  5
446
  8
DEFPOINTS
 62
     0
 10
0.0
 20
0.0
 30
0.0
  0
ENDBLK
  5
441
  8
0
  0
BLOCK
  8
0
  2
*D28
 70
     1
 10
0.0
 20
0.0
 30
0.0
  3
*D28
  1

  0
LINE
  5
44B
  8
0
 62
     0
 10
556.08575737293143
 20
-703.55043479451865
 30
0.0
 11
556.08575737293143
 21
-386.2361941977415
 31
0.0
  0
INSERT
  5
44C
  8
0
  2
*U56
 10
0.0
 20
0.0
 30
0.0
  0
POINT
  5
44D
  8
DEFPOINTS
 62
     0
 10
556.08575737293143
 20
-712.92543479451865
 30
0.0
  0
POINT
  5
44E
  8
DEFPOINTS
 62
     0
 10
556.08575737293143
 20
-576.8611941977415
 30
0.0
  0
POINT
  5
44F
  8
DEFPOINTS
 62
     0
 10
0.0
 20
0.0
 30
0.0
  0
ENDBLK
  5
44A
  8
0
  0
BLOCK
  8
0
  2
*D29
 70
     1
 10
0.0
 20
0.0
 30
0.0
  3
*D29
  1

  0
LINE
  5
454
  8
0
 62
     0
 10
1015.2582310325261
 20
-739.4258475871427
 30
0.0
 11
1401.529886448817
 21
-739.4258475871427
 31
0.0
  0
INSERT
  5
455
  8
0
  2
*U57
 10
0.0
 20
0.0
 30
0.0
  0
POINT
  5
456
  8
DEFPOINTS
 62
     0
 10
1005.8832310325261
 20
-739.4258475871427
 30
0.0
  0
POINT
  5
457
  8
DEFPOINTS
 62
     0
 10
1204.6548864488179
 20
-739.4258475871427
 30
0.0
  0
POINT
  5
458
  8
DEFPOINTS
 62
     0
 10
0.0
 20
0.0
 30
0.0
  0
ENDBLK
  5
453
  8
0
  0
BLOCK
  8
0
  2
*D30
 70
     1
 10
0.0
 20
0.0
 30
0.0
  3
*D30
  1

  0
LINE
  5
45D
  8
0
 62
     0
 10
1005.8832310325261
 20
-730.0508475871427
 30
0.0
 11
1005.8832310325261
 21
-406.74142970780571
 31
0.0
  0
INSERT
  5
45E
  8
0
  2
*U58
 10
0.0
 20
0.0
 30
0.0
  0
POINT
  5
45F
  8
DEFPOINTS
 62
     0
 10
1005.8832310325261
 20
-739.4258475871427
 30
0.0
  0
POINT
  5
460
  8
DEFPOINTS
 62
     0
 10
1005.8832310325261
 20
-616.11642970780565
 30
0.0
  0
POINT
  5
461
  8
DEFPOINTS
 62
     0
 10
0.0
 20
0.0
 30
0.0
  0
ENDBLK
  5
45C
  8
0
  0
BLOCK
  8
0
  2
*U32
 70
     1
 10
0.0
 20
0.0
 30
0.0
  3
*U32
  1

  0
TEXT
  5
4B8
  8
0
 62
     0
 10
605.15061750928805
 20
846.27257620827368
 30
0.0
 40
2.5
  1
605.7756
 50
90.0
  0
ENDBLK
  5
4BA
  8
0
  0
BLOCK
  8
0
  2
*U33
 70
     1
 10
0.0
 20
0.0
 30
0.0
  3
*U33
  1

  0
TEXT
  5
4BC
  8
0
 62
     0
 10
706.29968041677046
 20
673.95984888605744
 30
0.0
 40
2.5
  1
673.3348
  0
ENDBLK
  5
4BE
  8
0
  0
BLOCK
  8
0
  2
*U34
 70
     1
 10
0.0
 20
0.0
 30
0.0
  3
*U34
  1

  0
TEXT
  5
4C0
  8
0
 62
     0
 10
1333.4972682529601
 20
1070.8956235966159
 30
0.0
 40
2.5
  1
1334.1223
 50
90.0
  0
ENDBLK
  5
4C2
  8
0
  0
BLOCK
  8
0
  2
*U35
 70
     1
 10
0.0
 20
0.0
 30
0.0
  3
*U35
  1

  0
TEXT
  5
4C4
  8
0
 62
     0
 10
1440.85137765637
 20
910.59868958513107
 30
0.0
 40
2.5
  1
909.9737
  0
ENDBLK
  5
4C6
  8
0
  0
BLOCK
  8
0
  2
*U36
 70
     1
 10
0.0
 20
0.0
 30
0.0
  3
*U36
  1

  0
TEXT
  5
4C8
  8
0
 62
     0
 10
794.60223010918014
 20
-309.41694917203301
 30
0.0
 40
2.5
  1
795.2272
 50
90.0
  0
ENDBLK
  5
4CA
  8
0
  0
BLOCK
  8
0
  2
*U37
 70
     1
 10
0.0
 20
0.0
 30
0.0
  3
*U37
  1

  0
TEXT
  5
4CC
  8
0
 62
     0
 10
680.03555051869546
 20
-414.70093460910772
 30
0.0
 40
2.5
  1
415.3259
  0
ENDBLK
  5
4CE
  8
0
  0
BLOCK
  8
0
  2
*U38
 70
     1
 10
0.0
 20
0.0
 30
0.0
  3
*U38
  1

  0
TEXT
  5
4D0
  8
0
 62
     0
 10
-160.46178213699201
 20
9.375
 30
0.0
 40
37.5
  1
0
  0
ENDBLK
  5
4D2
  8
0
  0
BLOCK
  8
0
  2
*U39
 70
     1
 10
0.0
 20
0.0
 30
0.0
  3
*U39
  1

  0
TEXT
  5
4D4
  8
0
 62
     0
 10
-9.3749999999999218
 20
-149.91273737091981
 30
0.0
 40
37.5
  1
0
 50
90.0
  0
ENDBLK
  5
4D6
  8
0
  0
BLOCK
  8
0
  2
*U40
 70
     1
 10
0.0
 20
0.0
 30
0.0
  3
*U40
  1

  0
TEXT
  5
4D8
  8
0
 62
     0
 10
46.008880123179537
 20
733.3022096015859
 30
0.0
 40
37.5
  1
723.93
  0
ENDBLK
  5
4DA
  8
0
  0
BLOCK
  8
0
  2
*U41
 70
     1
 10
0.0
 20
0.0
 30
0.0
  3
*U41
  1

  0
TEXT
  5
4DC
  8
0
 62
     0
 10
358.0593878360101
 20
866.11399638181501
 30
0.0
 40
37.5
  1
367.43
 50
90.0
  0
ENDBLK
  5
4DE
  8
0
  0
BLOCK
  8
0
  2
*U42
 70
     1
 10
0.0
 20
0.0
 30
0.0
  3
*U42
  1

  0
TEXT
  5
4E0
  8
0
 62
     0
 10
536.5275250249091
 20
122.6736916249029
 30
0.0
 40
37.5
  1
545.9
 50
90.0
  0
ENDBLK
  5
4E2
  8
0
  0
BLOCK
  8
0
  2
*U43
 70
     1
 10
0.0
 20
0.0
 30
0.0
  3
*U43
  1

  0
TEXT
  5
4E4
  8
0
 62
     0
 10
676.32485302971679
 20
446.52910978716869
 30
0.0
 40
37.5
  1
437.15
  0
ENDBLK
  5
4E6
  8
0
  0
BLOCK
  8
0
  2
*U44
 70
     1
 10
0.0
 20
0.0
 30
0.0
  3
*U44
  1

  0
TEXT
  5
4E8
  8
0
 62
     0
 10
1296.732625209695
 20
1059.156693998741
 30
0.0
 40
37.5
  1
1306.11
 50
90.0
  0
ENDBLK
  5
4EA
  8
0
  0
BLOCK
  8
0
  2
*U45
 70
     1
 10
0.0
 20
0.0
 30
0.0
  3
*U45
  1

  0
TEXT
  5
4EC
  8
0
 62
     0
 10
973.24803893548051
 20
960.76341854909401
 30
0.0
 40
37.5
  1
951.39
  0
ENDBLK
  5
4EE
  8
0
  0
BLOCK
  8
0
  2
*U46
 70
     1
 10
0.0
 20
0.0
 30
0.0
  3
*U46
  1

  0
TEXT
  5
4F0
  8
0
 62
     0
 10
1524.456798842793
 20
947.62651957973765
 30
0.0
 40
37.5
  1
938.25
  0
ENDBLK
  5
4F2
  8
0
  0
BLOCK
  8
0
  2
*U47
 70
     1
 10
0.0
 20
0.0
 30
0.0
  3
*U47
  1

  0
TEXT
  5
4F4
  8
0
 62
     0
 10
1365.9827424323121
 20
608.23742032168434
 30
0.0
 40
37.5
  1
1375.36
 50
90.0
  0
ENDBLK
  5
4F6
  8
0
  0
BLOCK
  8
0
  2
*U48
 70
     1
 10
0.0
 20
0.0
 30
0.0
  3
*U48
  1

  0
TEXT
  5
4F8
  8
0
 62
     0
 10
2082.0724606380172
 20
177.24217408526329
 30
0.0
 40
37.5
  1
167.87
  0
ENDBLK
  5
4FA
  8
0
  0
BLOCK
  8
0
  2
*U49
 70
     1
 10
0.0
 20
0.0
 30
0.0
  3
*U49
  1

  0
TEXT
  5
4FC
  8
0
 62
     0
 10
1894.285083703968
 20
-155.79023109899171
 30
0.0
 40
37.5
  1
1903.66
 50
90.0
  0
ENDBLK
  5
4FE
  8
0
  0
BLOCK
  8
0
  2
*U50
 70
     1
 10
0.0
 20
0.0
 30
0.0
  3
*U50
  1

  0
TEXT
  5
500
  8
0
 62
     0
 10
906.0455559477931
 20
-974.72839937257936
 30
0.0
 40
37.5
  1
915.42
 50
90.0
  0
ENDBLK
  5
502
  8
0
  0
BLOCK
  8
0
  2
*U51
 70
     1
 10
0.0
 20
0.0
 30
0.0
  3
*U51
  1

  0
TEXT
  5
504
  8
0
 62
     0
 10
1122.589593451341
 20
-565.80575756998405
 30
0.0
 40
37.5
  1
575.18
  0
ENDBLK
  5
506
  8
0
  0
BLOCK
  8
0
  2
*U52
 70
     1
 10
0.0
 20
0.0
 30
0.0
  3
*U52
  1

  0
TEXT
  5
508
  8
0
 62
     0
 10
656.07438219455742
 20
-889.59761201304252
 30
0.0
 40
37.5
  1
665.45
 50
90.0
  0
ENDBLK
  5
50A
  8
0
  0
BLOCK
  8
0
  2
*U53
 70
     1
 10
0.0
 20
0.0
 30
0.0
  3
*U53
  1

  0
TEXT
  5
50C
  8
0
 62
     0
 10
341.0531705176636
 20
-558.12751030539891
 30
0.0
 40
37.5
  1
567.5
  0
ENDBLK
  5
50E
  8
0
  0
BLOCK
  8
0
  2
*U54
 70
     1
 10
0.0
 20
0.0
 30
0.0
  3
*U54
  1

  0
TEXT
  5
513
  8
0
 62
     0
 10
695.57979243773354
 20
-1006.836150397811
 30
0.0
 40
37.5
  1
97.3°
 50
356.62824107495157
  0
ENDBLK
  5
515
  8
0
  0
BLOCK
  8
0
  2
*U55
 70
     1
 10
0.0
 20
0.0
 30
0.0
  3
*U55
  1

  0
TEXT
  5
517
  8
0
 62
     0
 10
209.69823944285781
 20
-703.55043479451865
 30
0.0
 40
37.5
  1
712.93
  0
ENDBLK
  5
519
  8
0
  0
BLOCK
  8
0
  2
*U56
 70
     1
 10
0.0
 20
0.0
 30
0.0
  3
*U56
  1

  0
TEXT
  5
51B
  8
0
 62
     0
 10
546.71075737293154
 20
-567.4861941977415
 30
0.0
 40
37.5
  1
556.09
 50
90.0
  0
ENDBLK
  5
51D
  8
0
  0
BLOCK
  8
0
  2
*U57
 70
     1
 10
0.0
 20
0.0
 30
0.0
  3
*U57
  1

  0
TEXT
  5
51F
  8
0
 62
     0
 10
1214.029886448817
 20
-730.0508475871427
 30
0.0
 40
37.5
  1
739.43
  0
ENDBLK
  5
521
  8
0
  0
BLOCK
  8
0
  2
*U58
 70
     1
 10
0.0
 20
0.0
 30
0.0
  3
*U58
  1

  0
TEXT
  5
523
  8
0
 62
     0
 10
996.5082310325264
 20
-606.74142970780554
 30
0.0
 40
37.5
  1
1005.88
 50
90.0
  0
ENDBLK
  5
525
  8
0
  0
ENDSEC
  0
SECTION
  2
ENTITIES
  0
LINE
  5
244
  8
0
 10
367.4343878360105
 20
723.92720960158647
 30
0.0
 11
0.0000000000000568
 21
0.0
 31
0.0
  0
LINE
  5
245
  8
0
 10
0.0000000000000568
 20
0.0
 30
0.0
 11
556.08575737293143
 21
-712.92543479451876
 31
0.0
  0
LINE
  5
246
  8
0
 10
1005.8832310325261
 20
-739.42584758714281
 30
0.0
 11
1903.660083703968
 21
167.86717408526329
 31
0.0
  0
LINE
  5
247
  8
0
 10
1903.660083703968
 20
167.86717408526329
 30
0.0
 11
1375.357742432313
 21
938.25151957973765
 31
0.0
  0
LINE
  5
248
  8
0
 10
1306.107625209695
 20
951.38841854909367
 30
0.0
 11
545.90252502490875
 21
437.15410978716852
 31
0.0
  0
ARC
  5
249
  8
0
 10
605.77561750928817
 20
673.33484888605744
 30
0.0
 40
243.65165446789069
 50
168.01578634495229
 51
255.7748828218111
  0
ARC
  5
24C
  8
0
 10
1334.1222682529601
 20
909.97368958513107
 30
0.0
 40
50.0
 50
34.44095153009188
 51
124.0760534417079
  0
ARC
  5
41F
  8
0
 10
792.63581869912264
 20
-528.41508688260592
 30
0.0
 40
300.0
 50
217.95442665750281
 51
315.30205549240043
  0
ENDSEC
  0
EOF
